<svg width="161" height="163" viewBox="0 0 161 163" fill="none" xmlns="http://www.w3.org/2000/svg">
<rect width="161" height="163" fill="white"/>
<path d="M86.3408 36.0554C109.965 36.0554 129.454 53.8271 132.273 76.7819C131.942 77.2926 131.6 77.7929 131.24 78.2809L127.099 77.4147L130.812 70.5095L123.135 71.6823L123.775 63.6638L117.028 67.8884L114.852 60.197L110.032 66.5358L104.963 60.237L102.922 67.8141L96.1016 63.9763L97.1836 71.9577L89.3008 70.9792L93.251 77.9225L85.6719 79.7438L91.8252 84.8962L85.6191 89.5817L93.2783 91.6882L91.5498 95.0319C82.5855 94.2136 74.4057 90.237 67.4258 83.4831C69.6893 90.9659 89.2407 117.329 120.442 102.611C124.572 100.663 127.962 98.3257 130.728 95.7302C125.061 114.965 107.335 129 86.3408 129C60.7789 129 40.0568 108.194 40.0566 82.528C40.0566 56.8622 60.7787 36.0555 86.3408 36.0554Z" fill="url(#paint0_linear_52_410)"/>
<path d="M106.398 37.6045C122.597 32.9573 136.826 45.2988 140.34 50.7716C118.864 39.7696 118.813 46.1979 117.969 45.3499C116.426 43.8008 112.569 39.9281 106.398 37.6045Z" fill="url(#paint1_linear_52_410)"/>
<path d="M30.3966 82.3577C30.5814 82.1402 30.7682 81.9397 30.956 81.7571C30.7667 81.9579 30.5803 82.1581 30.3966 82.3577C26.9718 86.389 24.2491 96.2399 29.122 105.099C32.8667 111.906 43.8683 115.148 47.231 112.879L55.4848 121.632C48.4538 123.901 32.5575 126.495 23.6194 114.824C18.5192 108.165 17.2348 96.6673 30.3966 82.3577Z" fill="url(#paint2_linear_52_410)"/>
<path d="M134.347 79.4295L131.083 78.6785V70.4167C134.999 68.6142 139.786 59.1507 141.69 54.6443C142.996 64.258 137.338 75.4238 134.347 79.4295Z" fill="url(#paint3_linear_52_410)"/>
<defs>
<linearGradient id="paint0_linear_52_410" x1="123.976" y1="36.0554" x2="29.8921" y2="103.087" gradientUnits="userSpaceOnUse">
<stop stop-color="#00FFE1"/>
<stop offset="1" stop-color="#0055B0"/>
</linearGradient>
<linearGradient id="paint1_linear_52_410" x1="138.837" y1="40.5135" x2="128.752" y2="57.426" gradientUnits="userSpaceOnUse">
<stop stop-color="#00FFE1"/>
<stop offset="1" stop-color="#0055B0"/>
</linearGradient>
<linearGradient id="paint2_linear_52_410" x1="52.292" y1="81.7571" x2="12.4861" y2="106.008" gradientUnits="userSpaceOnUse">
<stop stop-color="#00FFE1"/>
<stop offset="1" stop-color="#0055B0"/>
</linearGradient>
<linearGradient id="paint3_linear_52_410" x1="140.911" y1="54.6443" x2="125.781" y2="59.3784" gradientUnits="userSpaceOnUse">
<stop stop-color="#00FFE1"/>
<stop offset="1" stop-color="#0055B0"/>
</linearGradient>
</defs>
</svg>
